<?xml version="1.0" standalone="no"?>
<!DOCTYPE svg PUBLIC "-//W3C//DTD SVG 20010904//EN"
 "http://www.w3.org/TR/2001/REC-SVG-20010904/DTD/svg10.dtd">
<svg version="1.0" xmlns="http://www.w3.org/2000/svg"
 width="75.000000pt" height="75.000000pt" viewBox="0 0 75.000000 75.000000"
 preserveAspectRatio="xMidYMid meet">
<metadata>
Created by potrace 1.11, written by Peter Selinger 2001-2013
</metadata>
<g transform="translate(0.000000,75.000000) scale(0.100000,-0.100000)"
fill="#000000" stroke="none">
<path d="M0 375 l0 -375 375 0 375 0 0 375 0 375 -375 0 -375 0 0 -375z m278
143 c15 -15 15 -51 0 -66 -28 -28 -78 -7 -78 33 0 27 18 45 45 45 12 0 26 -5
33 -12z m250 0 c7 -7 12 -21 12 -33 0 -12 -5 -26 -12 -33 -7 -7 -21 -12 -33
-12 -40 0 -61 50 -33 78 7 7 21 12 33 12 12 0 26 -5 33 -12z m-248 -167 c19
-46 47 -66 92 -66 34 0 45 6 69 35 16 19 29 40 29 47 0 7 12 13 26 13 25 0 26
-2 21 -36 -24 -150 -270 -150 -294 0 -5 33 -4 36 19 36 19 0 29 -8 38 -29z"/>
</g>
</svg>
